<svg width="320" height="220" viewBox="0 0 315 215" xmlns="http://www.w3.org/2000/svg">
  <!-- Helper: Define a die face with rounded corners -->
  <defs>
    <!-- Single dot -->
    <circle id="dot" r="8" fill="black"/>
  </defs>

  <!-- Die 1 -->
  <g transform="translate(2.5, 2.5)">
    <rect width="100" height="100" rx="10" ry="10" fill="white" stroke="black" stroke-width="5"/>
    <use href="#dot" x="50" y="50"/>
  </g>

  <!-- Die 2 -->
  <g transform="translate(107.5, 2.5)">
    <rect width="100" height="100" rx="10" ry="10" fill="white" stroke="black" stroke-width="5"/>
    <use href="#dot" x="30" y="30"/>
    <use href="#dot" x="70" y="70"/>
  </g>

  <!-- Die 3 -->
  <g transform="translate(212.5, 2.5)">
    <rect width="100" height="100" rx="10" ry="10" fill="white" stroke="black" stroke-width="5"/>
    <use href="#dot" x="30" y="30"/>
    <use href="#dot" x="50" y="50"/>
    <use href="#dot" x="70" y="70"/>
  </g>

  <!-- Die 4 -->
  <g transform="translate(2.5, 107.5)">
    <rect width="100" height="100" rx="10" ry="10" fill="white" stroke="black" stroke-width="5"/>
    <use href="#dot" x="30" y="30"/>
    <use href="#dot" x="70" y="30"/>
    <use href="#dot" x="30" y="70"/>
    <use href="#dot" x="70" y="70"/>
  </g>

  <!-- Die 5 -->
  <g transform="translate(107.5, 107.5)">
    <rect width="100" height="100" rx="10" ry="10" fill="white" stroke="black" stroke-width="5"/>
    <use href="#dot" x="30" y="30"/>
    <use href="#dot" x="70" y="30"/>
    <use href="#dot" x="50" y="50"/>
    <use href="#dot" x="30" y="70"/>
    <use href="#dot" x="70" y="70"/>
  </g>

  <!-- Die 6 -->
  <g transform="translate(212.5, 107.5)">
    <rect width="100" height="100" rx="10" ry="10" fill="white" stroke="black" stroke-width="5"/>
    <use href="#dot" x="30" y="25"/>
    <use href="#dot" x="30" y="50"/>
    <use href="#dot" x="30" y="75"/>
    <use href="#dot" x="70" y="25"/>
    <use href="#dot" x="70" y="50"/>
    <use href="#dot" x="70" y="75"/>
  </g>
</svg>
